<svg width="45" height="45" viewBox="0 0 45 45" fill="none" xmlns="http://www.w3.org/2000/svg">
<g clip-path="url(#clip0_58_6)">
<path d="M26.2501 45C25.9959 45.0011 25.7444 44.9494 25.5113 44.8482C25.0543 44.6522 24.6939 44.2827 24.5093 43.8211C24.3247 43.3594 24.3311 42.8433 24.5269 42.3863L30.1519 29.2613C30.2466 29.0315 30.3859 28.8229 30.5619 28.6475C30.7379 28.4721 30.947 28.3334 31.1771 28.2395C31.4071 28.1456 31.6535 28.0984 31.902 28.1005C32.1505 28.1027 32.396 28.1543 32.6244 28.2522C32.8528 28.3501 33.0594 28.4924 33.2323 28.6709C33.4052 28.8493 33.5409 29.0604 33.6315 29.2918C33.7221 29.5231 33.7658 29.7702 33.7601 30.0186C33.7544 30.267 33.6993 30.5118 33.5982 30.7388L27.9732 43.8638C27.8286 44.201 27.5883 44.4884 27.282 44.6903C26.9757 44.8923 26.6169 45 26.2501 45ZM18.7501 45C18.4959 45.0011 18.2444 44.9494 18.0113 44.8482C17.5543 44.6522 17.1939 44.2827 17.0093 43.8211C16.8247 43.3594 16.8311 42.8433 17.0269 42.3863L22.6519 29.2613C22.8525 28.8113 23.2221 28.4583 23.6808 28.2787C24.1395 28.099 24.6506 28.1072 25.1033 28.3013C25.5561 28.4954 25.9143 28.8599 26.1005 29.3161C26.2867 29.7722 26.2858 30.2833 26.0982 30.7388L20.4732 43.8638C20.3286 44.201 20.0883 44.4884 19.782 44.6903C19.4757 44.8923 19.1169 45 18.7501 45ZM11.25 45C10.9959 45.0011 10.7444 44.9494 10.5113 44.8482C10.0543 44.6522 9.69391 44.2827 9.50931 43.8211C9.32471 43.3594 9.33105 42.8433 9.52692 42.3863L15.1519 29.2613C15.3525 28.8113 15.7221 28.4583 16.1808 28.2787C16.6395 28.099 17.1506 28.1072 17.6033 28.3013C18.0561 28.4954 18.4143 28.8599 18.6005 29.3161C18.7867 29.7722 18.7858 30.2833 18.5982 30.7388L12.9732 43.8638C12.8286 44.201 12.5883 44.4884 12.282 44.6903C11.9757 44.8923 11.6169 45 11.25 45ZM7.50005 37.02C7.28734 37.0204 7.07616 36.9842 6.87567 36.9132C5.2081 36.3017 3.72516 35.2729 2.56851 33.9251C1.41186 32.5772 0.620145 30.9552 0.268997 29.2142C-0.0821503 27.4731 0.0189998 25.6711 0.562785 23.9802C1.10657 22.2894 2.07482 20.7662 3.37505 19.5563C3.61632 19.3523 3.80213 19.0906 3.91522 18.7956C4.02831 18.5006 4.06501 18.1818 4.02192 17.8688C3.67874 16.0813 3.65779 14.2468 3.96005 12.4519C4.46378 9.43594 5.88339 6.64805 8.02616 4.4667C10.1689 2.28535 12.9311 0.816229 15.9376 0.258775C19.2024 -0.348645 22.5764 0.137476 25.537 1.64184C28.4976 3.1462 30.8795 5.58485 32.3138 8.58003C32.4462 8.85478 32.6412 9.09462 32.8831 9.28025C33.1251 9.46588 33.4073 9.59211 33.7069 9.64877C45.9432 11.9344 49.1194 28.7307 38.5163 35.2857C38.309 35.4251 38.076 35.5217 37.8308 35.5698C37.5857 35.6179 37.3334 35.6165 37.0888 35.5657C36.8442 35.515 36.6122 35.4158 36.4065 35.2742C36.2007 35.1325 36.0254 34.9511 35.8907 34.7407C35.756 34.5303 35.6647 34.2951 35.6222 34.049C35.5797 33.8028 35.5868 33.5506 35.6431 33.3073C35.6994 33.0639 35.8038 32.8342 35.9501 32.6317C36.0964 32.4292 36.2817 32.258 36.4951 32.1282C44.2651 27.4125 41.9026 14.9175 32.9738 13.3238C32.1 13.1572 31.2779 12.7864 30.5747 12.2415C29.8715 11.6967 29.3071 10.9933 28.9276 10.1888C27.9091 8.02349 26.2269 6.23932 24.1252 5.09548C22.0234 3.95165 19.6117 3.50773 17.2405 3.82823C14.8692 4.14874 12.6619 5.21696 10.9393 6.87771C9.2166 8.53845 8.06834 10.7052 7.6613 13.0631C7.43219 14.4174 7.44743 15.8018 7.7063 17.1507C7.87238 18.0967 7.79346 19.0694 7.47706 19.9763C7.16066 20.8832 6.61732 21.6939 5.8988 22.3313C5.07198 23.1013 4.45629 24.0703 4.11049 25.146C3.7647 26.2216 3.70033 27.3679 3.92354 28.4755C4.14675 29.5831 4.65008 30.615 5.3855 31.4727C6.12093 32.3304 7.0639 32.9854 8.12442 33.375C8.54298 33.5213 8.89615 33.8112 9.12123 34.1932C9.34631 34.5752 9.42874 35.0246 9.35388 35.4616C9.27902 35.8986 9.05172 36.295 8.71233 36.5803C8.37294 36.8656 7.94343 37.0214 7.50005 37.02Z" fill="#595856"/>
</g>
<defs>
<clipPath id="clip0_58_6">
<rect width="45" height="45" fill="white"/>
</clipPath>
</defs>
</svg>
