<svg width="45" height="45" viewBox="0 0 45 45" fill="none" xmlns="http://www.w3.org/2000/svg">
<path d="M33.3599 13.5225C32.5267 9.93992 30.4062 6.78836 27.4015 4.66687C24.3967 2.54538 20.7172 1.60186 17.0623 2.01567C13.4075 2.42949 10.032 4.17177 7.57768 6.91135C5.1233 9.65093 3.76108 13.1968 3.74994 16.875C3.74832 19.272 4.32733 21.6337 5.43744 23.7581C3.41455 24.8422 1.81194 26.5711 0.884228 28.6703C-0.0434862 30.7694 -0.243087 33.1184 0.317138 35.344C0.877364 37.5696 2.16528 39.5442 3.97626 40.954C5.78725 42.3638 8.01742 43.1279 10.3124 43.125H29.9999C33.6732 43.108 37.2126 41.7436 39.9469 39.2907C42.6812 36.8378 44.4204 33.4668 44.8346 29.8169C45.2489 26.167 44.3095 22.492 42.1945 19.4886C40.0795 16.4853 36.936 14.3624 33.3599 13.5225ZM29.9999 39.375H10.3124C8.71574 39.3798 7.17235 38.8008 5.97279 37.747C4.77322 36.6931 4.00022 35.2372 3.79928 33.6532C3.59834 32.0691 3.98332 30.4663 4.88176 29.1463C5.78019 27.8264 7.13012 26.8803 8.67744 26.4863C8.97503 26.4097 9.24922 26.2611 9.4759 26.0536C9.70258 25.8462 9.8748 25.5862 9.9774 25.2965C10.08 25.0069 10.1098 24.6964 10.0643 24.3925C10.0187 24.0887 9.8992 23.8006 9.71619 23.5538C8.2746 21.6258 7.49697 19.2824 7.49994 16.875C7.52133 14.0362 8.61517 11.3105 10.5621 9.24443C12.509 7.17837 15.165 5.92474 17.9975 5.73495C20.83 5.54517 23.6296 6.43327 25.8347 8.22114C28.0399 10.009 29.4875 12.5645 29.8874 15.375C29.9414 15.7831 30.1282 16.1621 30.4189 16.4536C30.7096 16.745 31.0882 16.9326 31.4962 16.9875C34.3065 17.3873 36.8617 18.8347 38.6496 21.0395C40.4375 23.2442 41.3259 26.0433 41.1366 28.8756C40.9473 31.7078 39.6943 34.3638 37.629 36.311C35.5636 38.2583 32.8384 39.3527 29.9999 39.375Z" fill="#595856"/>
</svg>
