<svg width="45" height="45" viewBox="0 0 45 45" fill="none" xmlns="http://www.w3.org/2000/svg">
<g clip-path="url(#clip0_58_4)">
<path d="M26.0475 45C22.3725 45 18.8531 44.985 17.6269 44.9513C17.0988 44.9346 16.5742 44.8585 16.0631 44.7244C14.7536 44.3616 13.589 43.6013 12.73 42.5484C11.8711 41.4955 11.3601 40.202 11.2677 38.8463C11.1753 37.4906 11.506 36.1396 12.2142 34.9799C12.9224 33.8202 13.9731 32.9089 15.2213 32.3719C14.8857 30.6768 14.9221 28.929 15.3281 27.2494C15.897 24.9494 17.1775 22.8877 18.987 21.3583C20.7965 19.8289 23.0427 18.9098 25.4053 18.7321C27.7679 18.5544 30.1263 19.1272 32.1443 20.3687C34.1622 21.6103 35.7367 23.4572 36.6431 25.6463C36.8981 26.2575 37.1794 26.3212 37.7438 26.4469L38.0738 26.5256C40.429 27.1675 42.4422 28.7003 43.6876 30.7998C44.9329 32.8994 45.3128 35.401 44.7469 37.7756C44.3539 39.4645 43.4957 41.0096 42.2695 42.2357C41.0434 43.4619 39.4983 44.3201 37.8094 44.7131C37.1544 44.8624 36.486 44.9447 35.8144 44.9588C34.1794 44.9813 30.0244 45 26.0475 45ZM26.2163 22.4569C25.8467 22.4568 25.4775 22.4838 25.1119 22.5375C24.103 22.6909 23.1361 23.0489 22.2706 23.5896C21.4051 24.1302 20.6592 24.842 20.0787 25.6813C19.4982 26.5206 19.0954 27.4696 18.8949 28.4703C18.6945 29.4709 18.7007 30.5019 18.9131 31.5C19.1078 32.3641 18.9929 33.2692 18.5885 34.0573C18.1842 34.8454 17.5161 35.4666 16.7006 35.8125C16.0663 36.0806 15.553 36.5729 15.2587 37.1955C14.9643 37.818 14.9096 38.5272 15.105 39.1875C15.2333 39.6432 15.4766 40.0582 15.8115 40.3928C16.1464 40.7274 16.5617 40.9703 17.0175 41.0981C17.2513 41.1613 17.4917 41.1971 17.7338 41.205C20.25 41.2725 32.6306 41.2612 35.7338 41.205C36.1485 41.1966 36.5613 41.1458 36.9656 41.0531C37.9651 40.8139 38.8791 40.3034 39.607 39.5779C40.3348 38.8523 40.8482 37.9399 41.0906 36.9412C41.4353 35.5118 41.211 34.0044 40.4652 32.7373C39.7193 31.4701 38.5102 30.5424 37.0931 30.15L36.9206 30.1106C36.0864 29.9781 35.3013 29.6295 34.6434 29.0996C33.9856 28.5697 33.4778 27.8769 33.1706 27.09C32.5991 25.7169 31.6335 24.5439 30.3957 23.7193C29.158 22.8947 27.7036 22.4554 26.2163 22.4569ZM4.275 31.6762C3.86389 31.677 3.46394 31.5425 3.13672 31.2936C2.8095 31.0448 2.57314 30.6952 2.46404 30.2989C2.35493 29.9025 2.37912 29.4813 2.53288 29.1C2.68663 28.7187 2.96144 28.3985 3.315 28.1888L8.39438 25.1662C8.588 25.0849 8.74869 24.9409 8.85069 24.7573C8.95269 24.5737 8.99008 24.3611 8.95688 24.1537C8.79319 23.612 8.66788 23.0594 8.58188 22.5H1.875C1.37772 22.5 0.900806 22.3025 0.549175 21.9508C0.197544 21.5992 0 21.1223 0 20.625C0 20.1277 0.197544 19.6508 0.549175 19.2992C0.900806 18.9475 1.37772 18.75 1.875 18.75H8.57813C8.71642 17.8496 8.95996 16.9686 9.30375 16.125L3.5325 12.75C3.31153 12.6301 3.11691 12.4671 2.96023 12.2705C2.80354 12.0739 2.68799 11.8478 2.62044 11.6057C2.55289 11.3635 2.53472 11.1103 2.56701 10.861C2.59931 10.6117 2.68141 10.3714 2.80843 10.1545C2.93544 9.93752 3.10479 9.74834 3.30639 9.59817C3.508 9.44799 3.73774 9.33989 3.98196 9.28029C4.22618 9.2207 4.4799 9.21082 4.72801 9.25125C4.97613 9.29167 5.21358 9.38158 5.42625 9.51562L11.2388 12.9169C11.7736 12.2755 12.3709 11.6888 13.0219 11.1656L9.58125 5.35125C9.45567 5.13937 9.37306 4.90483 9.33813 4.66102C9.30319 4.41722 9.31662 4.16892 9.37764 3.9303C9.50089 3.44839 9.81053 3.03518 10.2384 2.78156C10.6663 2.52795 11.1775 2.45471 11.6594 2.57796C12.1413 2.7012 12.5545 3.01084 12.8081 3.43875L16.2638 9.26812C17.0661 8.954 17.8995 8.72585 18.75 8.5875V1.875C18.75 1.37772 18.9475 0.900806 19.2992 0.549175C19.6508 0.197544 20.1277 0 20.625 0C21.1223 0 21.5992 0.197544 21.9508 0.549175C22.3025 0.900806 22.5 1.37772 22.5 1.875V8.58188C23.3904 8.72069 24.2613 8.9636 25.095 9.30562L28.5131 3.465C28.6376 3.25238 28.8027 3.06636 28.9991 2.91756C29.1954 2.76876 29.4192 2.66009 29.6575 2.59776C29.8959 2.53543 30.1442 2.52065 30.3883 2.55428C30.6323 2.58791 30.8674 2.66928 31.08 2.79375C31.2926 2.91822 31.4786 3.08335 31.6274 3.27971C31.7762 3.47607 31.8849 3.69981 31.9472 3.93817C32.0096 4.17652 32.0244 4.42482 31.9907 4.66889C31.9571 4.91295 31.8757 5.14801 31.7513 5.36062L28.2956 11.2594C29.0963 11.7731 29.64 13.1344 30.6769 12.6038L35.625 9.3225C35.83 9.17393 36.063 9.06841 36.3099 9.01233C36.5568 8.95624 36.8125 8.95073 37.0616 8.99614C37.3107 9.04156 37.548 9.13695 37.7592 9.27656C37.9704 9.41617 38.1512 9.59712 38.2905 9.80848C38.4299 10.0198 38.5251 10.2573 38.5702 10.5064C38.6154 10.7555 38.6096 11.0112 38.5532 11.258C38.4969 11.5049 38.3911 11.7378 38.2423 11.9426C38.0935 12.1475 37.9048 12.3201 37.6875 12.45L32.655 15.7875C31.7268 16.351 30.6323 16.5764 29.5569 16.4253C28.4816 16.2743 27.4915 15.7562 26.7544 14.9588C25.9608 14.1149 25.0087 13.4359 23.9524 12.9603C22.8962 12.4848 21.7566 12.2222 20.5988 12.1875C18.3868 12.2833 16.2924 13.2096 14.7333 14.7816C13.1742 16.3535 12.2652 18.4555 12.1875 20.6681C12.1801 21.4801 12.301 22.2882 12.5456 23.0625C12.8391 24.0862 12.7697 25.1799 12.349 26.1582C11.9284 27.1366 11.1824 27.9394 10.2375 28.4306L5.23313 31.4119C4.94335 31.5846 4.61234 31.6759 4.275 31.6762Z" fill="#595856"/>
</g>
<defs>
<clipPath id="clip0_58_4">
<rect width="45" height="45" fill="white"/>
</clipPath>
</defs>
</svg>
