<svg width="45" height="45" viewBox="0 0 45 45" fill="none" xmlns="http://www.w3.org/2000/svg">
<g clip-path="url(#clip0_58_2)">
<path d="M1.875 20.625H9.525C9.67108 19.592 9.94115 18.5803 10.3294 17.6119L3.71625 13.7794C3.49523 13.6604 3.30034 13.4983 3.14314 13.3027C2.98593 13.107 2.86961 12.8818 2.80106 12.6403C2.73251 12.3989 2.71314 12.1461 2.74409 11.8971C2.77504 11.648 2.85568 11.4077 2.98123 11.1903C3.10678 10.973 3.27469 10.7831 3.475 10.6319C3.67531 10.4806 3.90394 10.3712 4.14735 10.3099C4.39075 10.2487 4.64397 10.237 4.892 10.2754C5.14002 10.3138 5.37781 10.4017 5.59125 10.5338L12.21 14.3719C12.8427 13.5726 13.5656 12.849 14.3644 12.2156L10.5281 5.595C10.2971 5.16572 10.2424 4.66335 10.3755 4.1944C10.5086 3.72544 10.8192 3.32677 11.2413 3.08292C11.6634 2.83906 12.1639 2.76919 12.6367 2.88813C13.1094 3.00706 13.5173 3.30543 13.7738 3.72L17.6119 10.3294C18.5801 9.94073 19.5919 9.67065 20.625 9.525V1.875C20.625 1.37772 20.8225 0.900806 21.1742 0.549175C21.5258 0.197544 22.0027 0 22.5 0C22.9973 0 23.4742 0.197544 23.8258 0.549175C24.1775 0.900806 24.375 1.37772 24.375 1.875V9.525C25.4081 9.67065 26.4199 9.94073 27.3881 10.3294L31.2206 3.71625C31.4771 3.30168 31.885 3.00331 32.3577 2.88437C32.8305 2.76544 33.331 2.83531 33.7531 3.07917C34.1752 3.32302 34.4857 3.72169 34.6189 4.19065C34.752 4.6596 34.6973 5.16197 34.4662 5.59125L30.63 12.2156C31.4287 12.849 32.1516 13.5726 32.7844 14.3719L39.4031 10.5338C39.6166 10.4017 39.8544 10.3138 40.1024 10.2754C40.3504 10.237 40.6036 10.2487 40.847 10.3099C41.0904 10.3712 41.3191 10.4806 41.5194 10.6319C41.7197 10.7831 41.8876 10.973 42.0131 11.1903C42.1387 11.4077 42.2193 11.648 42.2503 11.8971C42.2812 12.1461 42.2619 12.3989 42.1933 12.6403C42.1248 12.8818 42.0084 13.107 41.8512 13.3027C41.694 13.4983 41.4991 13.6604 41.2781 13.7794L34.6706 17.6119C35.0588 18.5803 35.3289 19.592 35.475 20.625H43.125C43.6223 20.625 44.0992 20.8225 44.4508 21.1742C44.8025 21.5258 45 22.0027 45 22.5C45 22.9973 44.8025 23.4742 44.4508 23.8258C44.0992 24.1775 43.6223 24.375 43.125 24.375H35.475C35.3289 25.408 35.0588 26.4197 34.6706 27.3881L41.2838 31.2206C41.5048 31.3396 41.6997 31.5017 41.8569 31.6973C42.0141 31.893 42.1304 32.1182 42.1989 32.3597C42.2675 32.6011 42.2869 32.8539 42.2559 33.1029C42.225 33.352 42.1443 33.5923 42.0188 33.8097C41.8932 34.027 41.7253 34.2169 41.525 34.3681C41.3247 34.5194 41.0961 34.6288 40.8527 34.6901C40.6093 34.7513 40.356 34.763 40.108 34.7246C39.86 34.6862 39.6222 34.5983 39.4087 34.4662L32.79 30.6281C32.1573 31.4274 31.4344 32.151 30.6356 32.7844L34.4662 39.405C34.6973 39.8343 34.752 40.3366 34.6189 40.8056C34.4857 41.2746 34.1752 41.6732 33.7531 41.9171C33.331 42.1609 32.8305 42.2308 32.3577 42.1119C31.885 41.9929 31.4771 41.6946 31.2206 41.28L27.3881 34.6669C26.4198 35.056 25.4081 35.3273 24.375 35.475V43.125C24.375 43.6223 24.1775 44.0992 23.8258 44.4508C23.4742 44.8025 22.9973 45 22.5 45C22.0027 45 21.5258 44.8025 21.1742 44.4508C20.8225 44.0992 20.625 43.6223 20.625 43.125V35.475C19.592 35.3285 18.5804 35.0585 17.6119 34.6706L13.7794 41.2837C13.5229 41.6983 13.115 41.9967 12.6423 42.1156C12.1695 42.2346 11.669 42.1647 11.2469 41.9208C10.8248 41.677 10.5143 41.2783 10.3811 40.8094C10.248 40.3404 10.3027 39.838 10.5338 39.4087L14.37 32.7881C13.5713 32.1547 12.8484 31.4312 12.2156 30.6319L5.59688 34.47C5.38343 34.6021 5.14565 34.6899 4.89762 34.7283C4.64959 34.7668 4.39637 34.7551 4.15297 34.6938C3.90956 34.6326 3.68093 34.5231 3.48062 34.3719C3.28031 34.2206 3.11241 34.0307 2.98685 33.8134C2.8613 33.5961 2.78066 33.3558 2.74971 33.1067C2.71877 32.8576 2.73814 32.6049 2.80668 32.3634C2.87523 32.122 2.99156 31.8967 3.14876 31.7011C3.30597 31.5054 3.50086 31.3433 3.72188 31.2244L10.335 27.3919C9.94456 26.4225 9.67259 25.4096 9.525 24.375H1.875C1.37772 24.375 0.900804 24.1775 0.549173 23.8258C0.197543 23.4742 0 22.9973 0 22.5C0 22.0027 0.197543 21.5258 0.549173 21.1742C0.900804 20.8225 1.37772 20.625 1.875 20.625ZM22.5 31.875C34.89 31.4813 34.8862 13.5169 22.5 13.125C10.11 13.5187 10.1138 31.4831 22.5 31.875Z" fill="#595856"/>
</g>
<defs>
<clipPath id="clip0_58_2">
<rect width="45" height="45" fill="white" transform="matrix(-1 0 0 1 45 0)"/>
</clipPath>
</defs>
</svg>
